<svg width="304" height="69" viewBox="0 0 304 69" fill="none" xmlns="http://www.w3.org/2000/svg">
<rect x="-8.9407e-08" y="1.60145" width="41.382" height="41.382" transform="matrix(0.8456 0.533818 -0.8456 0.533818 38.8835 21.3811)" fill="#C19570" stroke="white" stroke-width="3"/>
<rect x="-8.9407e-08" y="1.60145" width="41.382" height="41.382" transform="matrix(0.8456 0.533818 -0.8456 0.533818 38.8835 11.2966)" fill="#E3BD8F" stroke="white" stroke-width="3"/>
<rect x="-8.9407e-08" y="1.60145" width="41.382" height="41.382" transform="matrix(0.8456 0.533818 -0.8456 0.533818 38.8835 1.2119)" fill="#F4E0C5" stroke="white" stroke-width="3"/>
<path d="M97.9061 7.26499H103.368V9.42648H105.589C110.69 9.42648 116.992 11.4379 116.992 17.9523C116.992 23.7463 112.071 26.4482 105.499 26.4482H103.368V29.06H97.9061V26.4482H95.7153C89.1432 26.4482 84.2815 23.7463 84.2815 17.9523C84.2815 11.4379 90.5536 9.42648 95.6553 9.42648H97.9061V7.26499ZM97.9061 22.3354V13.5393H96.2855C93.0445 13.5393 89.7434 14.7401 89.7434 18.0124C89.7434 21.0445 93.0745 22.3354 96.3155 22.3354H97.9061ZM103.368 13.5393V22.3354H104.988C108.229 22.3354 111.531 21.1045 111.531 18.0724C111.531 14.8002 108.229 13.5393 104.988 13.5393H103.368Z" fill="black"/>
<path d="M116.973 29.06L127.297 7.26499H132.519L142.452 29.06H136.39L134.409 24.4368H124.806L122.855 29.06H116.973ZM126.667 20.0238H132.429L129.518 13.2991L126.667 20.0238Z" fill="black"/>
<path d="M149.732 7.26499V15.3706H160.206V7.26499H165.667V29.06H160.206V19.8436H149.732V29.06H144.27V7.26499H149.732Z" fill="black"/>
<path d="M170.529 7.26499H189.885V11.7381H175.991V15.3706H188.355V19.8436H175.991V24.5869H189.885V29.06H170.529V7.26499Z" fill="black"/>
<path d="M193.945 29.06V7.26499H206.849C211.951 7.26499 214.862 10.0869 214.862 14.6801C214.862 19.3033 211.951 22.2153 206.849 22.2153H199.407V29.06H193.945ZM199.407 11.7381V17.7422H204.418C207.81 17.7422 209.4 17.1718 209.4 14.7702C209.4 12.2784 208.02 11.7381 204.779 11.7381H199.407Z" fill="black"/>
<path d="M224.024 7.26499V15.3706H234.498V7.26499H239.96V29.06H234.498V19.8436H224.024V29.06H218.563V7.26499H224.024Z" fill="black"/>
<path d="M250.283 7.26499V15.3706H258.056C262.677 15.3706 265.348 18.0424 265.348 22.2753C265.348 26.4782 262.737 29.06 258.086 29.06H244.821V7.26499H250.283ZM250.283 19.8436V24.5869H256.135C258.806 24.5869 259.886 24.1366 259.886 22.1252C259.886 20.1739 258.596 19.8436 255.865 19.8436H250.283ZM276.272 7.26499V29.06H270.81V7.26499H276.272Z" fill="black"/>
<path d="M281.132 7.26499H286.384V22.6356L297.277 7.26499H304V29.06H298.748V13.5393L287.764 29.06H281.132V7.26499ZM286.114 0H288.755C288.935 0.96066 289.775 2.16149 292.056 2.16149C294.607 2.16149 295.327 0.96066 295.477 0H298.058C297.968 1.50103 296.977 5.34367 292.056 5.34367C287.194 5.34367 286.204 1.50103 286.114 0Z" fill="black"/>
<path d="M88.783 37.4357H108.71V54.7576H111.291V63.8539H106.069V59.2307H89.2032V63.8539H83.9814V54.7576H85.692C88.3629 52.8663 88.783 48.5734 88.783 43.8301V37.4357ZM103.248 41.9088H94.0648V43.9802C94.0648 49.8342 93.1345 53.4667 91.3039 54.7576H103.248V41.9088Z" fill="black"/>
<path d="M114.671 59.2307V37.4357H128.745C133.637 37.4357 136.098 39.237 136.098 42.8695C136.098 44.9709 135.077 46.6521 133.127 47.6427C135.648 48.4533 136.908 50.2846 136.908 53.0164C136.908 56.769 134.357 59.2307 129.856 59.2307H114.671ZM120.132 49.9843V54.7576H127.395C129.976 54.7576 131.206 54.4874 131.206 52.5061C131.206 50.6448 130.006 49.9843 127.395 49.9843H120.132ZM120.132 41.9088V46.1717H126.585C129.165 46.1717 130.396 45.7815 130.396 43.9202C130.396 42.239 129.195 41.9088 126.585 41.9088H120.132Z" fill="black"/>
<path d="M152.491 36.8653C160.504 36.8653 165.515 41.4285 165.515 48.3332C165.515 55.238 160.504 59.8011 152.491 59.8011C144.478 59.8011 139.437 55.238 139.437 48.3332C139.437 41.4285 144.478 36.8653 152.491 36.8653ZM152.491 41.3384C148.139 41.3384 145.439 43.9802 145.439 48.3332C145.439 52.6862 148.139 55.328 152.491 55.328C156.842 55.328 159.513 52.6862 159.513 48.3332C159.513 43.9502 156.842 41.3384 152.491 41.3384Z" fill="black"/>
<path d="M169.21 59.2307V37.4357H182.114C187.216 37.4357 190.127 40.2577 190.127 44.8508C190.127 49.474 187.216 52.386 182.114 52.386H174.672V59.2307H169.21ZM174.672 41.9088V47.9129H179.684C183.075 47.9129 184.665 47.3425 184.665 44.9409C184.665 42.4492 183.285 41.9088 180.044 41.9088H174.672Z" fill="black"/>
</svg>
